<svg width="33" height="32" viewBox="0 0 33 32" fill="none" xmlns="http://www.w3.org/2000/svg">
<rect x="0.829346" width="32" height="32" rx="16" fill="black"/>
<path fill-rule="evenodd" clip-rule="evenodd" d="M16.8293 9C18.7305 9 18.9688 9.00798 19.7155 9.04201C20.4606 9.07604 20.9693 9.19438 21.4147 9.36748C21.875 9.54631 22.2653 9.78565 22.6545 10.1748C23.0437 10.564 23.283 10.9543 23.4619 11.4147C23.635 11.86 23.7533 12.3688 23.7873 13.1138C23.8214 13.8605 23.8293 14.0989 23.8293 16C23.8293 17.9011 23.8214 18.1395 23.7873 18.886C23.7533 19.6311 23.635 20.14 23.4619 20.5852C23.283 21.0455 23.0437 21.436 22.6545 21.8252C22.2653 22.2143 21.875 22.4535 21.4147 22.6325C20.9693 22.8056 20.4606 22.9238 19.7155 22.9578C18.9688 22.9919 18.7305 23 16.8293 23C14.9282 23 14.6899 22.9919 13.9433 22.958C13.1983 22.924 12.6893 22.8056 12.2441 22.6325C11.7838 22.4535 11.3934 22.2143 11.0042 21.8252C10.615 21.4358 10.3757 21.0455 10.1968 20.5852C10.0237 20.14 9.90553 19.6311 9.8715 18.886C9.83733 18.1395 9.82935 17.9011 9.82935 16C9.82935 14.0989 9.83719 13.8605 9.87136 13.1138C9.90539 12.3688 10.0236 11.86 10.1967 11.4147C10.3757 10.9543 10.615 10.564 11.0043 10.1748C11.3936 9.78565 11.784 9.54631 12.2443 9.36748C12.6895 9.19438 13.1981 9.07604 13.9433 9.04201C14.6899 9.00798 14.9282 9 16.8293 9ZM16.8293 10.2612C14.9603 10.2612 14.7389 10.2682 14.0007 10.302C13.3183 10.3331 12.9476 10.4472 12.701 10.543C12.3742 10.67 12.1411 10.8217 11.8961 11.0668C11.651 11.3116 11.4994 11.5448 11.3724 11.8716C11.2766 12.1181 11.1626 12.4888 11.1315 13.1712C11.0977 13.9096 11.0906 14.1308 11.0906 16C11.0906 17.869 11.0977 18.0904 11.1315 18.8286C11.1626 19.5111 11.2766 19.8818 11.3724 20.1284C11.4994 20.4551 11.651 20.6883 11.8961 20.9332C12.1411 21.1783 12.3742 21.33 12.701 21.457C12.9476 21.5528 13.3183 21.6668 14.0007 21.6979C14.7388 21.7315 14.96 21.7388 16.8293 21.7388C18.6987 21.7388 18.9199 21.7316 19.658 21.6979C20.3404 21.6668 20.7111 21.5528 20.9577 21.457C21.2846 21.33 21.5178 21.1783 21.7627 20.9332C22.0076 20.6883 22.1593 20.4551 22.2863 20.1284C22.3821 19.8818 22.4963 19.5111 22.5272 18.8286C22.561 18.0906 22.5681 17.869 22.5681 16C22.5681 14.1308 22.5611 13.9096 22.5273 13.1714C22.4963 12.4888 22.3821 12.1182 22.2863 11.8716C22.1593 11.5448 22.0076 11.3116 21.7626 11.0666C21.5178 10.8217 21.2846 10.67 20.9577 10.543C20.7112 10.4472 20.3404 10.3331 19.658 10.302C18.9199 10.2684 18.6985 10.2612 16.8293 10.2612ZM16.8316 12.428C18.8031 12.428 20.4013 14.0262 20.4013 15.9978C20.4013 17.9693 18.8031 19.5675 16.8316 19.5675C14.86 19.5675 13.2618 17.9693 13.2618 15.9978C13.2618 14.0262 14.86 12.428 16.8316 12.428ZM16.8316 18.3149C18.1113 18.3149 19.1488 17.2775 19.1488 15.9978C19.1488 14.718 18.1113 13.6806 16.8316 13.6806C15.5519 13.6806 14.5144 14.718 14.5144 15.9978C14.5144 17.2775 15.5519 18.3149 16.8316 18.3149ZM21.3625 12.2222C21.3625 12.7151 20.9936 13.1147 20.5387 13.1147C20.0836 13.1147 19.7148 12.7151 19.7148 12.2222C19.7148 11.7292 20.0837 11.3298 20.5387 11.3298C20.9936 11.3298 21.3625 11.7293 21.3625 12.2222Z" fill="white"/>
</svg>
