<svg width="33" height="32" viewBox="0 0 33 32" fill="none" xmlns="http://www.w3.org/2000/svg">
<rect x="0.829346" width="32" height="32" rx="16" fill="black"/>
<path d="M9.81027 15.097L19.3409 10.9416C20.2817 10.5087 23.4722 9.1236 23.4722 9.1236C23.4722 9.1236 24.9448 8.51759 24.8221 9.98931C24.7812 10.5953 24.4539 12.7163 24.1267 15.0105L23.1041 21.8063C23.1041 21.8063 23.0223 22.8019 22.3269 22.9751C21.6316 23.1482 20.4862 22.3691 20.2817 22.1959C20.1181 22.0661 17.2139 20.1182 16.1504 19.1659C15.8641 18.9062 15.5368 18.3868 16.1913 17.7808C17.6639 16.3523 19.4227 14.5776 20.4862 13.4522C20.9771 12.9327 21.4679 11.7207 19.4227 13.1925L13.6553 17.3046C13.6553 17.3046 13.0008 17.7375 11.7737 17.3479C10.5465 16.9583 9.11489 16.4389 9.11489 16.4389C9.11489 16.4389 8.1332 15.7896 9.81027 15.097Z" fill="white"/>
</svg>
