<svg width="33" height="32" viewBox="0 0 33 32" fill="none" xmlns="http://www.w3.org/2000/svg">
<rect x="0.829346" width="32" height="32" rx="16" fill="black"/>
<path d="M23.8293 16C23.8293 12.1336 20.6958 9 16.8293 9C12.9629 9 9.82935 12.1336 9.82935 16C9.82935 19.4945 12.3887 22.3902 15.7356 22.9152V18.0234H13.9583V16H15.7356V14.4578C15.7356 12.7037 16.7801 11.7344 18.3797 11.7344C19.1454 11.7344 19.9465 11.8711 19.9465 11.8711V13.5938H19.0633C18.1938 13.5938 17.9231 14.1338 17.9231 14.6875V16H19.8645L19.5542 18.0234H17.9231V22.9152C21.27 22.3902 23.8293 19.4945 23.8293 16Z" fill="white"/>
</svg>
