<svg width="14" height="17" viewBox="0 0 14 17" fill="none" xmlns="http://www.w3.org/2000/svg">
<path d="M13.5689 12.3188C13.6658 12.2118 13.7179 12.0716 13.7143 11.9272C13.7108 11.7829 13.6519 11.6454 13.5498 11.5433C13.4477 11.4412 13.3102 11.3823 13.1659 11.3787C13.0215 11.3752 12.8813 11.4273 12.7743 11.5242C11.5081 12.7904 9.79079 13.5018 8.00011 13.5018C6.20943 13.5018 4.49209 12.7904 3.22589 11.5242C1.95969 10.258 1.24834 8.54068 1.24834 6.75C1.24834 4.95932 1.95969 3.24199 3.22589 1.97578C3.28236 1.92462 3.32784 1.86252 3.35958 1.79324C3.39132 1.72397 3.40865 1.64897 3.41053 1.57279C3.4124 1.49661 3.39878 1.42085 3.37049 1.3501C3.3422 1.27935 3.29983 1.21508 3.24594 1.1612C3.19206 1.10732 3.1278 1.06494 3.05704 1.03665C2.98629 1.00836 2.91053 0.99474 2.83435 0.996615C2.75818 0.998491 2.68317 1.01582 2.6139 1.04756C2.54463 1.0793 2.48252 1.12479 2.43136 1.18125C1.36411 2.24876 0.626152 3.60051 0.305366 5.07553C-0.0154196 6.55055 0.0944828 8.08668 0.621986 9.50101C1.14949 10.9153 2.07236 12.1483 3.28071 13.053C4.48906 13.9577 5.93197 14.496 7.43761 14.6039V15.75H5.75011C5.60092 15.75 5.45785 15.8093 5.35236 15.9148C5.24687 16.0202 5.18761 16.1633 5.18761 16.3125C5.18761 16.4617 5.24687 16.6048 5.35236 16.7103C5.45785 16.8157 5.60092 16.875 5.75011 16.875H10.2501C10.3993 16.875 10.5424 16.8157 10.6479 16.7103C10.7533 16.6048 10.8126 16.4617 10.8126 16.3125C10.8126 16.1633 10.7533 16.0202 10.6479 15.9148C10.5424 15.8093 10.3993 15.75 10.2501 15.75H8.56261V14.6039C10.4525 14.4715 12.2307 13.6598 13.5689 12.3188Z" fill="#FFE873"/>
</svg>
