<svg width="14" height="14" viewBox="0 0 14 14" fill="none" xmlns="http://www.w3.org/2000/svg">
<path d="M7 0.25C5.66498 0.25 4.35994 0.645881 3.2499 1.38758C2.13987 2.12928 1.27471 3.18349 0.763816 4.41689C0.252925 5.65029 0.119252 7.00749 0.379702 8.31686C0.640153 9.62623 1.28303 10.829 2.22703 11.773C3.17104 12.717 4.37377 13.3598 5.68314 13.6203C6.99252 13.8808 8.34972 13.7471 9.58312 13.2362C10.8165 12.7253 11.8707 11.8601 12.6124 10.7501C13.3541 9.64007 13.75 8.33502 13.75 7C13.7463 5.21093 13.0339 3.4962 11.7689 2.23113C10.5038 0.966067 8.78907 0.253716 7 0.25ZM10.1852 4.61641L7.40078 7.40078C7.29327 7.50474 7.14956 7.56286 7 7.56286C6.85044 7.56286 6.70674 7.50474 6.59922 7.40078C6.4936 7.29413 6.43434 7.1501 6.43434 7C6.43434 6.8499 6.4936 6.70587 6.59922 6.59922L9.3836 3.81484C9.43403 3.75339 9.49677 3.70318 9.56778 3.66744C9.63879 3.6317 9.7165 3.61122 9.7959 3.60732C9.87531 3.60342 9.95465 3.61618 10.0288 3.6448C10.103 3.67341 10.1703 3.71723 10.2266 3.77344C10.2828 3.82966 10.3266 3.89702 10.3552 3.97119C10.3838 4.04536 10.3966 4.1247 10.3927 4.2041C10.3888 4.2835 10.3683 4.36121 10.3326 4.43222C10.2968 4.50323 10.2466 4.56597 10.1852 4.61641Z" fill="#FFE873"/>
</svg>
