<svg width="15" height="15" viewBox="0 0 15 15" fill="none" xmlns="http://www.w3.org/2000/svg">
<path d="M14.1875 6.3125H6.08754L13.9133 4.21719C13.9845 4.19735 14.0511 4.1635 14.109 4.11762C14.167 4.07174 14.2152 4.01475 14.2508 3.95C14.289 3.88745 14.3137 3.81763 14.3234 3.74499C14.3331 3.67235 14.3275 3.59849 14.3071 3.52812L13.7235 1.35547C13.6868 1.2126 13.622 1.07847 13.5329 0.96091C13.4438 0.843349 13.3321 0.744711 13.2045 0.670751C13.0769 0.59679 12.9358 0.548989 12.7895 0.530135C12.6432 0.51128 12.4946 0.521752 12.3524 0.560937L1.48207 3.47187C1.33893 3.50938 1.20466 3.57493 1.08704 3.66472C0.969426 3.75451 0.870805 3.86676 0.796897 3.99495C0.722989 4.12314 0.675266 4.26473 0.656494 4.41151C0.637722 4.55829 0.648274 4.70733 0.68754 4.85L1.25004 6.95234V13.0625C1.25004 13.3609 1.36857 13.647 1.57955 13.858C1.79052 14.069 2.07667 14.1875 2.37504 14.1875H13.625C13.9234 14.1875 14.2096 14.069 14.4205 13.858C14.6315 13.647 14.75 13.3609 14.75 13.0625V6.875C14.75 6.72582 14.6908 6.58274 14.5853 6.47725C14.4798 6.37176 14.3367 6.3125 14.1875 6.3125ZM10.9039 3.85859L6.0102 5.16641L3.95004 3.97109L8.83676 2.66328L10.9039 3.85859ZM13.625 13.0625H2.37504V7.4375H13.625V13.0625Z" fill="#FFE873"/>
</svg>
